<mxfile host="app.diagrams.net" modified="2023-08-23T10:37:27.625Z" agent="Mozilla/5.0 (Macintosh; Intel Mac OS X 10_15_7) AppleWebKit/537.36 (KHTML, like Gecko) Chrome/114.0.0.0 Safari/537.36" etag="uDAyBHfRU5JJm9bk6bAF" version="21.6.1" type="github" pages="2">
  <diagram name="报文流向" id="vCY1DlSuIEUwMERqjHk8">
    <mxGraphModel dx="1674" dy="1021" grid="0" gridSize="10" guides="1" tooltips="1" connect="1" arrows="1" fold="1" page="0" pageScale="1" pageWidth="827" pageHeight="1169" math="0" shadow="0">
      <root>
        <mxCell id="0" />
        <mxCell id="1" parent="0" />
        <mxCell id="spY9hiR_xeRV6OndHtL6-28" value="" style="rounded=0;whiteSpace=wrap;html=1;fillColor=#d5e8d4;strokeColor=#82b366;" vertex="1" parent="1">
          <mxGeometry x="591" y="747" width="654" height="91" as="geometry" />
        </mxCell>
        <mxCell id="spY9hiR_xeRV6OndHtL6-3" value="" style="rounded=0;whiteSpace=wrap;html=1;fillColor=#d5e8d4;strokeColor=#82b366;" vertex="1" parent="1">
          <mxGeometry x="581" y="542" width="656" height="91" as="geometry" />
        </mxCell>
        <mxCell id="spY9hiR_xeRV6OndHtL6-4" value="NIC" style="text;html=1;align=center;verticalAlign=middle;resizable=0;points=[];autosize=1;strokeColor=none;fillColor=none;fontSize=14;" vertex="1" parent="1">
          <mxGeometry x="594" y="601" width="42" height="29" as="geometry" />
        </mxCell>
        <mxCell id="spY9hiR_xeRV6OndHtL6-5" value="RX/TX queues" style="whiteSpace=wrap;html=1;fillColor=#fff2cc;strokeColor=#d6b656;fontSize=15;" vertex="1" parent="1">
          <mxGeometry x="857" y="557.5" width="120" height="60" as="geometry" />
        </mxCell>
        <mxCell id="spY9hiR_xeRV6OndHtL6-6" value="" style="rounded=0;whiteSpace=wrap;html=1;fillColor=#d5e8d4;strokeColor=#82b366;" vertex="1" parent="1">
          <mxGeometry x="581" y="431" width="654" height="91" as="geometry" />
        </mxCell>
        <mxCell id="spY9hiR_xeRV6OndHtL6-7" value="Kernel space" style="text;html=1;align=center;verticalAlign=middle;resizable=0;points=[];autosize=1;strokeColor=none;fillColor=none;fontSize=14;" vertex="1" parent="1">
          <mxGeometry x="577" y="496" width="100" height="29" as="geometry" />
        </mxCell>
        <mxCell id="spY9hiR_xeRV6OndHtL6-10" value="" style="edgeStyle=orthogonalEdgeStyle;rounded=0;orthogonalLoop=1;jettySize=auto;html=1;startArrow=classic;startFill=1;fontSize=15;" edge="1" parent="1" source="spY9hiR_xeRV6OndHtL6-8" target="spY9hiR_xeRV6OndHtL6-9">
          <mxGeometry relative="1" as="geometry" />
        </mxCell>
        <mxCell id="spY9hiR_xeRV6OndHtL6-12" value="" style="edgeStyle=orthogonalEdgeStyle;rounded=0;orthogonalLoop=1;jettySize=auto;html=1;startArrow=classic;startFill=1;fontSize=15;" edge="1" parent="1" source="spY9hiR_xeRV6OndHtL6-8" target="spY9hiR_xeRV6OndHtL6-11">
          <mxGeometry relative="1" as="geometry" />
        </mxCell>
        <mxCell id="spY9hiR_xeRV6OndHtL6-8" value="Driver" style="whiteSpace=wrap;html=1;fillColor=#fff2cc;strokeColor=#d6b656;fontSize=15;" vertex="1" parent="1">
          <mxGeometry x="867" y="446.5" width="120" height="60" as="geometry" />
        </mxCell>
        <mxCell id="spY9hiR_xeRV6OndHtL6-9" value="Ring&lt;br style=&quot;font-size: 15px;&quot;&gt;buffers" style="whiteSpace=wrap;html=1;fillColor=#fff2cc;strokeColor=#d6b656;fontSize=15;" vertex="1" parent="1">
          <mxGeometry x="1057" y="446.5" width="120" height="60" as="geometry" />
        </mxCell>
        <mxCell id="spY9hiR_xeRV6OndHtL6-11" value="network protocol stack" style="whiteSpace=wrap;html=1;fillColor=#fff2cc;strokeColor=#d6b656;fontSize=15;" vertex="1" parent="1">
          <mxGeometry x="690" y="446.5" width="107" height="60" as="geometry" />
        </mxCell>
        <mxCell id="spY9hiR_xeRV6OndHtL6-13" value="" style="rounded=0;whiteSpace=wrap;html=1;fillColor=#d5e8d4;strokeColor=#82b366;" vertex="1" parent="1">
          <mxGeometry x="581" y="321" width="654" height="91" as="geometry" />
        </mxCell>
        <mxCell id="spY9hiR_xeRV6OndHtL6-14" value="User space" style="text;html=1;align=center;verticalAlign=middle;resizable=0;points=[];autosize=1;strokeColor=none;fillColor=none;fontSize=14;" vertex="1" parent="1">
          <mxGeometry x="577" y="380" width="89" height="29" as="geometry" />
        </mxCell>
        <mxCell id="spY9hiR_xeRV6OndHtL6-15" value="App" style="whiteSpace=wrap;html=1;fillColor=#fff2cc;strokeColor=#d6b656;fontSize=15;" vertex="1" parent="1">
          <mxGeometry x="857" y="336.5" width="120" height="60" as="geometry" />
        </mxCell>
        <mxCell id="spY9hiR_xeRV6OndHtL6-16" value="" style="endArrow=classic;startArrow=classic;html=1;rounded=0;exitX=1;exitY=0.5;exitDx=0;exitDy=0;entryX=1;entryY=0.5;entryDx=0;entryDy=0;fontSize=15;" edge="1" parent="1" source="spY9hiR_xeRV6OndHtL6-5" target="spY9hiR_xeRV6OndHtL6-9">
          <mxGeometry width="50" height="50" relative="1" as="geometry">
            <mxPoint x="375" y="601" as="sourcePoint" />
            <mxPoint x="425" y="551" as="targetPoint" />
            <Array as="points">
              <mxPoint x="1214" y="588" />
              <mxPoint x="1214" y="477" />
            </Array>
          </mxGeometry>
        </mxCell>
        <mxCell id="spY9hiR_xeRV6OndHtL6-17" value="" style="edgeStyle=orthogonalEdgeStyle;rounded=0;orthogonalLoop=1;jettySize=auto;html=1;startArrow=classic;startFill=1;entryX=0;entryY=0.5;entryDx=0;entryDy=0;exitX=0.5;exitY=0;exitDx=0;exitDy=0;fontSize=15;" edge="1" parent="1" source="spY9hiR_xeRV6OndHtL6-11" target="spY9hiR_xeRV6OndHtL6-15">
          <mxGeometry relative="1" as="geometry">
            <mxPoint x="987" y="492" as="sourcePoint" />
            <mxPoint x="1067" y="492" as="targetPoint" />
          </mxGeometry>
        </mxCell>
        <mxCell id="spY9hiR_xeRV6OndHtL6-18" value="" style="rounded=0;whiteSpace=wrap;html=1;fillColor=#d5e8d4;strokeColor=#82b366;" vertex="1" parent="1">
          <mxGeometry x="591" y="968" width="656" height="91" as="geometry" />
        </mxCell>
        <mxCell id="spY9hiR_xeRV6OndHtL6-19" value="NIC" style="text;html=1;align=center;verticalAlign=middle;resizable=0;points=[];autosize=1;strokeColor=none;fillColor=none;fontSize=14;" vertex="1" parent="1">
          <mxGeometry x="604" y="1027" width="42" height="29" as="geometry" />
        </mxCell>
        <mxCell id="spY9hiR_xeRV6OndHtL6-20" value="RX/TX queues" style="whiteSpace=wrap;html=1;fillColor=#fff2cc;strokeColor=#d6b656;fontSize=15;" vertex="1" parent="1">
          <mxGeometry x="867" y="983.5" width="120" height="60" as="geometry" />
        </mxCell>
        <mxCell id="spY9hiR_xeRV6OndHtL6-21" value="" style="rounded=0;whiteSpace=wrap;html=1;fillColor=#d5e8d4;strokeColor=#82b366;" vertex="1" parent="1">
          <mxGeometry x="591" y="859" width="654" height="91" as="geometry" />
        </mxCell>
        <mxCell id="spY9hiR_xeRV6OndHtL6-22" value="Kernel space" style="text;html=1;align=center;verticalAlign=middle;resizable=0;points=[];autosize=1;strokeColor=none;fillColor=none;fontSize=14;" vertex="1" parent="1">
          <mxGeometry x="587" y="924" width="100" height="29" as="geometry" />
        </mxCell>
        <mxCell id="spY9hiR_xeRV6OndHtL6-23" value="" style="edgeStyle=orthogonalEdgeStyle;rounded=0;orthogonalLoop=1;jettySize=auto;html=1;startArrow=classic;startFill=1;fontSize=15;" edge="1" parent="1" source="spY9hiR_xeRV6OndHtL6-25" target="spY9hiR_xeRV6OndHtL6-26">
          <mxGeometry relative="1" as="geometry" />
        </mxCell>
        <mxCell id="spY9hiR_xeRV6OndHtL6-24" value="" style="edgeStyle=orthogonalEdgeStyle;rounded=0;orthogonalLoop=1;jettySize=auto;html=1;startArrow=classic;startFill=1;fontSize=15;entryX=1;entryY=0.5;entryDx=0;entryDy=0;" edge="1" parent="1" source="spY9hiR_xeRV6OndHtL6-25" target="spY9hiR_xeRV6OndHtL6-30">
          <mxGeometry relative="1" as="geometry" />
        </mxCell>
        <mxCell id="spY9hiR_xeRV6OndHtL6-25" value="Driver" style="whiteSpace=wrap;html=1;fillColor=#fff2cc;strokeColor=#d6b656;fontSize=15;" vertex="1" parent="1">
          <mxGeometry x="851" y="765" width="120" height="60" as="geometry" />
        </mxCell>
        <mxCell id="spY9hiR_xeRV6OndHtL6-26" value="Ring&lt;br style=&quot;font-size: 15px;&quot;&gt;buffers" style="whiteSpace=wrap;html=1;fillColor=#fff2cc;strokeColor=#d6b656;fontSize=15;" vertex="1" parent="1">
          <mxGeometry x="1061" y="765" width="120" height="60" as="geometry" />
        </mxCell>
        <mxCell id="spY9hiR_xeRV6OndHtL6-27" value="UIO driver" style="whiteSpace=wrap;html=1;fillColor=#fff2cc;strokeColor=#d6b656;fontSize=15;" vertex="1" parent="1">
          <mxGeometry x="870.5" y="874.5" width="107" height="60" as="geometry" />
        </mxCell>
        <mxCell id="spY9hiR_xeRV6OndHtL6-29" value="User space" style="text;html=1;align=center;verticalAlign=middle;resizable=0;points=[];autosize=1;strokeColor=none;fillColor=none;fontSize=14;" vertex="1" parent="1">
          <mxGeometry x="587" y="806" width="89" height="29" as="geometry" />
        </mxCell>
        <mxCell id="spY9hiR_xeRV6OndHtL6-30" value="App" style="whiteSpace=wrap;html=1;fillColor=#fff2cc;strokeColor=#d6b656;fontSize=15;" vertex="1" parent="1">
          <mxGeometry x="693" y="765" width="74" height="60" as="geometry" />
        </mxCell>
        <mxCell id="spY9hiR_xeRV6OndHtL6-31" value="" style="endArrow=classic;startArrow=classic;html=1;rounded=0;exitX=1;exitY=0.5;exitDx=0;exitDy=0;entryX=1;entryY=0.5;entryDx=0;entryDy=0;fontSize=15;" edge="1" parent="1" source="spY9hiR_xeRV6OndHtL6-20" target="spY9hiR_xeRV6OndHtL6-26">
          <mxGeometry width="50" height="50" relative="1" as="geometry">
            <mxPoint x="385" y="1027" as="sourcePoint" />
            <mxPoint x="435" y="977" as="targetPoint" />
            <Array as="points">
              <mxPoint x="1219" y="1014" />
              <mxPoint x="1219" y="795" />
            </Array>
          </mxGeometry>
        </mxCell>
        <mxCell id="spY9hiR_xeRV6OndHtL6-33" value="&lt;span style=&quot;background-color: initial;&quot;&gt;linux&lt;/span&gt;&lt;span style=&quot;background-color: initial; font-family: FangSong;&quot;&gt;内核处理包流程&lt;/span&gt;&lt;br&gt;" style="text;html=1;align=center;verticalAlign=middle;resizable=0;points=[];autosize=1;strokeColor=none;fillColor=none;fontSize=15;" vertex="1" parent="1">
          <mxGeometry x="844" y="654" width="154" height="30" as="geometry" />
        </mxCell>
        <mxCell id="spY9hiR_xeRV6OndHtL6-34" value="&lt;span style=&quot;background-color: initial;&quot;&gt;DPDK&lt;/span&gt;&lt;span style=&quot;background-color: initial; font-family: FangSong;&quot;&gt;处理包流程&lt;/span&gt;" style="text;html=1;align=center;verticalAlign=middle;resizable=0;points=[];autosize=1;strokeColor=none;fillColor=none;fontSize=15;" vertex="1" parent="1">
          <mxGeometry x="860" y="1079" width="135" height="30" as="geometry" />
        </mxCell>
      </root>
    </mxGraphModel>
  </diagram>
  <diagram id="FW_1vDyBbIt9U0mCUnhf" name="offload">
    <mxGraphModel dx="2474" dy="1021" grid="0" gridSize="10" guides="1" tooltips="1" connect="1" arrows="1" fold="1" page="0" pageScale="1" pageWidth="827" pageHeight="1169" math="0" shadow="0">
      <root>
        <mxCell id="0" />
        <mxCell id="1" parent="0" />
        <mxCell id="gy4ILCdyfCxJtfKzuv0B-1" value="HOST" style="rounded=0;whiteSpace=wrap;html=1;fillColor=#f5f5f5;fontColor=#333333;strokeColor=#666666;" vertex="1" parent="1">
          <mxGeometry x="-67" y="9" width="623" height="131" as="geometry" />
        </mxCell>
        <mxCell id="gy4ILCdyfCxJtfKzuv0B-2" value="" style="rounded=0;whiteSpace=wrap;html=1;dashed=1;strokeWidth=1;" vertex="1" parent="1">
          <mxGeometry x="-66" y="155" width="624" height="319" as="geometry" />
        </mxCell>
        <mxCell id="gy4ILCdyfCxJtfKzuv0B-3" value="BlueField" style="text;html=1;align=center;verticalAlign=middle;whiteSpace=wrap;rounded=0;labelBackgroundColor=#FFFFFF;" vertex="1" parent="1">
          <mxGeometry x="-55" y="141" width="60" height="30" as="geometry" />
        </mxCell>
        <mxCell id="gy4ILCdyfCxJtfKzuv0B-4" value="" style="rounded=0;whiteSpace=wrap;html=1;fillColor=#dae8fc;strokeColor=#6c8ebf;" vertex="1" parent="1">
          <mxGeometry x="381" y="16" width="92" height="117" as="geometry" />
        </mxCell>
        <mxCell id="gy4ILCdyfCxJtfKzuv0B-5" value="VM" style="text;html=1;align=center;verticalAlign=middle;resizable=0;points=[];autosize=1;strokeColor=none;fillColor=none;" vertex="1" parent="1">
          <mxGeometry x="407" y="21" width="36" height="26" as="geometry" />
        </mxCell>
        <mxCell id="gy4ILCdyfCxJtfKzuv0B-6" value="MLX5 VF" style="rounded=0;whiteSpace=wrap;html=1;fillColor=#d5e8d4;strokeColor=#82b366;" vertex="1" parent="1">
          <mxGeometry x="394" y="98" width="68" height="29" as="geometry" />
        </mxCell>
        <mxCell id="gy4ILCdyfCxJtfKzuv0B-8" value="" style="rounded=0;whiteSpace=wrap;html=1;" vertex="1" parent="1">
          <mxGeometry x="341" y="161" width="203" height="303" as="geometry" />
        </mxCell>
        <mxCell id="gy4ILCdyfCxJtfKzuv0B-7" value="VF" style="rounded=0;whiteSpace=wrap;html=1;fillColor=#f5f5f5;fontColor=#333333;strokeColor=#666666;" vertex="1" parent="1">
          <mxGeometry x="355" y="168" width="37" height="42" as="geometry" />
        </mxCell>
        <mxCell id="gy4ILCdyfCxJtfKzuv0B-9" value="VF" style="rounded=0;whiteSpace=wrap;html=1;fillColor=#f5f5f5;fontColor=#333333;strokeColor=#666666;" vertex="1" parent="1">
          <mxGeometry x="409.5" y="168" width="37" height="42" as="geometry" />
        </mxCell>
        <mxCell id="gy4ILCdyfCxJtfKzuv0B-10" value="VF" style="rounded=0;whiteSpace=wrap;html=1;fillColor=#f5f5f5;fontColor=#333333;strokeColor=#666666;" vertex="1" parent="1">
          <mxGeometry x="461" y="167" width="37" height="42" as="geometry" />
        </mxCell>
        <mxCell id="gy4ILCdyfCxJtfKzuv0B-13" value="" style="edgeStyle=orthogonalEdgeStyle;rounded=0;orthogonalLoop=1;jettySize=auto;html=1;entryX=0.5;entryY=1;entryDx=0;entryDy=0;endArrow=none;endFill=0;" edge="1" parent="1" source="gy4ILCdyfCxJtfKzuv0B-11" target="gy4ILCdyfCxJtfKzuv0B-9">
          <mxGeometry relative="1" as="geometry" />
        </mxCell>
        <mxCell id="gy4ILCdyfCxJtfKzuv0B-11" value="eSwitch" style="rounded=0;whiteSpace=wrap;html=1;fillColor=#fff2cc;strokeColor=#d6b656;" vertex="1" parent="1">
          <mxGeometry x="373" y="235" width="120" height="184" as="geometry" />
        </mxCell>
        <mxCell id="gy4ILCdyfCxJtfKzuv0B-12" value="ASIC" style="text;html=1;align=center;verticalAlign=middle;resizable=0;points=[];autosize=1;strokeColor=none;fillColor=none;" vertex="1" parent="1">
          <mxGeometry x="503" y="167" width="46" height="26" as="geometry" />
        </mxCell>
        <mxCell id="gy4ILCdyfCxJtfKzuv0B-16" value="" style="endArrow=none;html=1;rounded=0;entryX=0.5;entryY=1;entryDx=0;entryDy=0;exitX=0.5;exitY=0;exitDx=0;exitDy=0;" edge="1" parent="1" source="gy4ILCdyfCxJtfKzuv0B-9" target="gy4ILCdyfCxJtfKzuv0B-6">
          <mxGeometry width="50" height="50" relative="1" as="geometry">
            <mxPoint x="175" y="225" as="sourcePoint" />
            <mxPoint x="225" y="175" as="targetPoint" />
          </mxGeometry>
        </mxCell>
        <mxCell id="gy4ILCdyfCxJtfKzuv0B-17" value="" style="rounded=0;whiteSpace=wrap;html=1;fillColor=#f5f5f5;fontColor=#333333;strokeColor=#666666;" vertex="1" parent="1">
          <mxGeometry x="-49" y="164" width="377" height="299" as="geometry" />
        </mxCell>
        <mxCell id="gy4ILCdyfCxJtfKzuv0B-18" value="ARM" style="text;html=1;align=center;verticalAlign=middle;resizable=0;points=[];autosize=1;strokeColor=none;fillColor=none;" vertex="1" parent="1">
          <mxGeometry x="278" y="168" width="45" height="26" as="geometry" />
        </mxCell>
        <mxCell id="gy4ILCdyfCxJtfKzuv0B-20" value="" style="edgeStyle=orthogonalEdgeStyle;rounded=0;orthogonalLoop=1;jettySize=auto;html=1;endArrow=none;endFill=0;" edge="1" parent="1" source="gy4ILCdyfCxJtfKzuv0B-19" target="gy4ILCdyfCxJtfKzuv0B-11">
          <mxGeometry relative="1" as="geometry">
            <Array as="points">
              <mxPoint x="433" y="416" />
              <mxPoint x="433" y="416" />
            </Array>
          </mxGeometry>
        </mxCell>
        <mxCell id="gy4ILCdyfCxJtfKzuv0B-19" value="Port" style="rounded=0;whiteSpace=wrap;html=1;" vertex="1" parent="1">
          <mxGeometry x="414" y="429" width="39" height="35" as="geometry" />
        </mxCell>
        <mxCell id="gy4ILCdyfCxJtfKzuv0B-21" value="" style="rounded=0;whiteSpace=wrap;html=1;fillColor=#d5e8d4;strokeColor=#82b366;" vertex="1" parent="1">
          <mxGeometry x="141" y="200" width="181" height="255" as="geometry" />
        </mxCell>
        <mxCell id="gy4ILCdyfCxJtfKzuv0B-22" value="controller" style="rounded=0;whiteSpace=wrap;html=1;fillColor=#dae8fc;strokeColor=#6c8ebf;" vertex="1" parent="1">
          <mxGeometry x="-21" y="234" width="89" height="60" as="geometry" />
        </mxCell>
        <mxCell id="gy4ILCdyfCxJtfKzuv0B-23" value="ovs dpdk" style="text;html=1;align=center;verticalAlign=middle;resizable=0;points=[];autosize=1;strokeColor=none;fillColor=none;" vertex="1" parent="1">
          <mxGeometry x="256" y="424" width="66" height="26" as="geometry" />
        </mxCell>
        <mxCell id="gy4ILCdyfCxJtfKzuv0B-24" value="" style="endArrow=none;html=1;rounded=0;exitX=1;exitY=0.5;exitDx=0;exitDy=0;entryX=0;entryY=0.25;entryDx=0;entryDy=0;" edge="1" parent="1" source="gy4ILCdyfCxJtfKzuv0B-22" target="gy4ILCdyfCxJtfKzuv0B-21">
          <mxGeometry width="50" height="50" relative="1" as="geometry">
            <mxPoint x="100" y="260" as="sourcePoint" />
            <mxPoint x="150" y="210" as="targetPoint" />
          </mxGeometry>
        </mxCell>
        <mxCell id="gy4ILCdyfCxJtfKzuv0B-25" value="openflow" style="text;html=1;align=center;verticalAlign=middle;resizable=0;points=[];autosize=1;strokeColor=none;fillColor=none;" vertex="1" parent="1">
          <mxGeometry x="71" y="243" width="66" height="26" as="geometry" />
        </mxCell>
        <mxCell id="gy4ILCdyfCxJtfKzuv0B-26" value="" style="endArrow=classic;html=1;rounded=0;entryX=0;entryY=0.75;entryDx=0;entryDy=0;exitX=0.151;exitY=1.034;exitDx=0;exitDy=0;exitPerimeter=0;fontColor=#FF0000;dashed=1;strokeWidth=2;strokeColor=#FF0000;" edge="1" parent="1" source="gy4ILCdyfCxJtfKzuv0B-36" target="gy4ILCdyfCxJtfKzuv0B-11">
          <mxGeometry width="50" height="50" relative="1" as="geometry">
            <mxPoint x="175" y="225" as="sourcePoint" />
            <mxPoint x="225" y="175" as="targetPoint" />
          </mxGeometry>
        </mxCell>
        <mxCell id="gy4ILCdyfCxJtfKzuv0B-28" value="bridge" style="rounded=0;whiteSpace=wrap;html=1;" vertex="1" parent="1">
          <mxGeometry x="166" y="243" width="137" height="60" as="geometry" />
        </mxCell>
        <mxCell id="gy4ILCdyfCxJtfKzuv0B-29" value="vxlan" style="rounded=0;whiteSpace=wrap;html=1;" vertex="1" parent="1">
          <mxGeometry x="187" y="295" width="52" height="25" as="geometry" />
        </mxCell>
        <mxCell id="gy4ILCdyfCxJtfKzuv0B-30" value="vf_rep" style="rounded=0;whiteSpace=wrap;html=1;" vertex="1" parent="1">
          <mxGeometry x="266" y="260.5" width="52" height="25" as="geometry" />
        </mxCell>
        <mxCell id="gy4ILCdyfCxJtfKzuv0B-31" value="" style="endArrow=classic;startArrow=classic;html=1;rounded=0;strokeColor=#3e9c07;entryX=0.5;entryY=1;entryDx=0;entryDy=0;dashed=1;strokeWidth=2;" edge="1" parent="1" target="gy4ILCdyfCxJtfKzuv0B-6">
          <mxGeometry width="50" height="50" relative="1" as="geometry">
            <mxPoint x="433" y="493" as="sourcePoint" />
            <mxPoint x="446.5" y="543" as="targetPoint" />
          </mxGeometry>
        </mxCell>
        <mxCell id="gy4ILCdyfCxJtfKzuv0B-32" value="&lt;span style=&quot;background-color: rgb(255, 255, 255);&quot;&gt;fastpath&lt;/span&gt;" style="text;html=1;align=center;verticalAlign=middle;resizable=0;points=[];autosize=1;strokeColor=none;fillColor=none;fontColor=#368b04;fontSize=14;" vertex="1" parent="1">
          <mxGeometry x="399.5" y="339" width="68" height="29" as="geometry" />
        </mxCell>
        <mxCell id="gy4ILCdyfCxJtfKzuv0B-33" value="" style="curved=1;endArrow=classic;html=1;rounded=0;startArrow=classic;startFill=1;entryX=0.5;entryY=1;entryDx=0;entryDy=0;strokeColor=#FF0000;dashed=1;strokeWidth=2;" edge="1" parent="1" target="gy4ILCdyfCxJtfKzuv0B-6">
          <mxGeometry width="50" height="50" relative="1" as="geometry">
            <mxPoint x="439" y="508" as="sourcePoint" />
            <mxPoint x="398.5" y="494" as="targetPoint" />
            <Array as="points">
              <mxPoint x="448" y="435" />
              <mxPoint x="328" y="286" />
              <mxPoint x="251" y="266" />
              <mxPoint x="450" y="307" />
            </Array>
          </mxGeometry>
        </mxCell>
        <mxCell id="gy4ILCdyfCxJtfKzuv0B-35" value="&lt;span style=&quot;background-color: rgb(255, 255, 255);&quot;&gt;slowpath&lt;/span&gt;" style="text;html=1;align=center;verticalAlign=middle;resizable=0;points=[];autosize=1;strokeColor=none;fillColor=none;fontColor=#FF0000;fontSize=14;" vertex="1" parent="1">
          <mxGeometry x="337" y="274" width="73" height="29" as="geometry" />
        </mxCell>
        <mxCell id="gy4ILCdyfCxJtfKzuv0B-36" value="&lt;span style=&quot;background-color: rgb(255, 255, 255);&quot;&gt;offload&lt;/span&gt;" style="text;html=1;align=center;verticalAlign=middle;resizable=0;points=[];autosize=1;strokeColor=none;fillColor=none;fontColor=#FF0000;fontSize=14;" vertex="1" parent="1">
          <mxGeometry x="256" y="344" width="60" height="29" as="geometry" />
        </mxCell>
      </root>
    </mxGraphModel>
  </diagram>
</mxfile>
